<?xml version="1.0" standalone="no"?>
<!DOCTYPE svg PUBLIC "-//W3C//DTD SVG 20010904//EN"
 "http://www.w3.org/TR/2001/REC-SVG-20010904/DTD/svg10.dtd">
<svg version="1.0" xmlns="http://www.w3.org/2000/svg"
 width="899.000000pt" height="899.000000pt" viewBox="0 0 899.000000 899.000000"
 preserveAspectRatio="xMidYMid meet">
<metadata>
Created by potrace 1.14, written by Peter Selinger 2001-2017
</metadata>
<g transform="translate(0.000000,899.000000) scale(0.100000,-0.100000)"
fill="#000000" stroke="none">
<path d="M4377 8974 c-1 -1 -58 -5 -127 -9 -165 -9 -195 -11 -260 -19 -30 -4
-73 -9 -95 -12 -22 -3 -65 -9 -95 -15 -30 -5 -68 -12 -85 -14 -503 -86 -1093
-310 -1530 -580 -161 -99 -365 -237 -365 -247 0 -4 -5 -8 -11 -8 -6 0 -16 -6
-23 -12 -7 -7 -28 -24 -46 -38 -53 -40 -138 -109 -194 -158 -57 -51 -370 -364
-401 -402 -11 -14 -54 -66 -95 -116 -41 -50 -86 -106 -100 -124 -14 -18 -29
-38 -35 -44 -34 -38 -206 -296 -198 -296 5 0 3 -4 -3 -8 -12 -7 -94 -138 -94
-148 0 -3 -9 -18 -19 -33 -11 -15 -21 -34 -23 -42 -2 -8 -6 -16 -9 -19 -11 -8
-94 -175 -91 -182 1 -5 -3 -8 -8 -8 -6 0 -10 -6 -10 -12 0 -7 -13 -39 -29 -70
-16 -32 -27 -58 -24 -58 3 0 1 -6 -5 -12 -16 -20 -140 -343 -168 -438 -35
-121 -82 -296 -88 -326 -2 -16 -8 -40 -11 -54 -4 -14 -8 -34 -10 -45 -2 -11
-6 -33 -10 -50 -4 -16 -8 -37 -9 -45 -1 -8 -5 -28 -9 -45 -7 -32 -20 -122 -32
-215 -1 -14 -6 -50 -10 -80 -41 -312 -35 -874 11 -1105 3 -11 6 -36 8 -55 13
-115 66 -364 111 -525 109 -383 240 -691 465 -1090 30 -54 183 -287 223 -340
18 -24 41 -55 52 -71 39 -54 149 -190 218 -269 67 -77 347 -359 398 -400 13
-11 56 -46 94 -78 103 -86 100 -83 199 -157 324 -240 742 -465 1131 -608 107
-39 353 -117 398 -126 12 -3 72 -16 132 -31 61 -15 134 -31 164 -35 29 -5 58
-16 65 -23 6 -9 50 -20 106 -27 52 -7 104 -14 115 -16 23 -4 95 -11 220 -21
50 -4 198 -7 330 -8 267 0 390 8 605 37 47 7 91 11 98 9 7 -1 15 5 18 13 5 14
18 18 84 30 46 8 174 35 240 50 355 80 834 265 1118 433 41 24 76 43 78 43 10
0 270 173 374 248 773 559 1314 1283 1618 2164 104 299 194 691 217 938 4 36
8 71 10 77 26 79 26 695 1 898 -2 17 -7 55 -10 86 -4 31 -8 65 -10 75 -2 11
-7 42 -10 69 -4 28 -9 57 -11 65 -2 8 -7 31 -10 50 -81 480 -298 1062 -559
1498 -134 224 -332 496 -485 666 -82 91 -321 328 -396 391 -44 38 -82 71 -85
75 -33 42 -534 400 -559 400 -6 0 -11 5 -11 10 0 6 -4 10 -9 10 -5 0 -44 20
-86 46 -112 65 -352 184 -359 177 -3 -4 -6 -1 -6 5 0 7 -4 12 -9 12 -5 0 -26
8 -47 17 -22 9 -42 16 -46 15 -5 -1 -8 3 -8 10 0 6 -3 8 -7 5 -3 -4 -11 -3
-17 2 -29 22 -371 143 -380 133 -3 -3 -6 0 -6 7 0 7 -6 11 -12 8 -7 -2 -32 4
-55 14 -24 10 -43 17 -43 14 0 -2 -15 1 -32 6 -47 14 -70 20 -93 24 -11 2 -21
4 -22 5 -2 2 -6 3 -10 5 -35 9 -62 15 -83 19 -14 3 -59 12 -100 21 -41 9 -91
18 -110 21 -19 2 -62 9 -95 15 -33 6 -77 12 -97 14 -21 2 -59 6 -85 10 -49 6
-92 10 -244 21 -80 6 -368 12 -372 8z m433 -408 c19 -2 69 -7 110 -10 41 -4
91 -11 110 -15 l35 -7 -1 -79 c-1 -44 -4 -136 -8 -205 -12 -207 -16 -280 -21
-400 -7 -143 -13 -277 -20 -400 -3 -52 -7 -147 -10 -210 -8 -193 -18 -439 -30
-690 -3 -69 -8 -168 -10 -220 -2 -52 -7 -160 -10 -240 -4 -80 -8 -197 -10
-260 -18 -527 -15 -511 -108 -591 -34 -30 -72 -63 -84 -74 -11 -11 -42 -38
-68 -60 -26 -22 -52 -45 -59 -51 -7 -7 -21 -8 -38 -3 -34 9 -171 3 -214 -10
-29 -8 -36 -4 -117 63 -99 82 -112 108 -122 246 -6 93 -13 174 -20 263 -3 31
-7 83 -10 115 -7 87 -20 234 -30 342 -4 52 -9 102 -20 240 -10 119 -16 186
-20 230 -3 25 -7 81 -10 125 -3 44 -7 91 -10 105 -2 14 -7 66 -10 115 -4 50
-8 106 -10 125 -2 19 -6 76 -10 125 -3 50 -8 101 -10 115 -3 14 -7 61 -10 105
-6 78 -11 139 -20 240 -2 28 -7 82 -10 120 -6 73 -11 128 -20 230 -2 33 -7 89
-10 125 -12 145 -16 197 -20 235 -2 22 -7 74 -11 115 -3 41 -8 77 -10 80 -8
15 16 28 61 35 130 17 183 23 290 31 50 3 92 8 94 10 4 4 451 -4 501 -10z
m503 -72 c39 -8 81 -17 92 -20 11 -2 30 -6 42 -8 13 -3 37 -9 55 -15 18 -6 96
-29 173 -52 185 -54 408 -140 557 -215 74 -37 72 -30 32 -122 -13 -29 -24 -55
-24 -57 0 -2 -11 -29 -25 -59 -14 -30 -25 -58 -25 -63 0 -5 -9 -25 -20 -46
-11 -20 -21 -40 -21 -44 -2 -12 -44 -120 -70 -178 -20 -47 -33 -81 -34 -91 0
-6 -8 -23 -18 -37 -10 -15 -15 -32 -12 -36 3 -5 1 -11 -5 -13 -6 -2 -12 -12
-14 -23 -3 -11 -15 -42 -27 -70 -13 -27 -24 -52 -24 -55 -2 -7 -15 -37 -35
-85 -10 -22 -39 -94 -65 -160 -27 -66 -53 -125 -58 -132 -5 -7 -6 -17 -2 -23
3 -5 1 -10 -4 -10 -6 0 -11 -5 -11 -10 0 -6 -30 -81 -66 -168 -36 -86 -67
-161 -68 -167 -4 -14 -24 -66 -36 -90 -9 -20 -42 -96 -45 -105 -4 -11 -26 -67
-40 -100 -8 -19 -16 -42 -17 -50 -2 -8 -6 -17 -9 -20 -8 -7 -51 -118 -49 -126
1 -4 -2 -10 -7 -13 -14 -10 -34 -62 -28 -72 4 -5 2 -9 -3 -9 -5 0 -12 -8 -15
-17 -3 -10 -26 -67 -52 -128 -26 -60 -53 -129 -62 -152 -9 -26 -31 -55 -56
-77 -23 -19 -61 -52 -84 -73 -82 -76 -126 -113 -134 -113 -4 0 -6 37 -4 83 4
89 13 306 20 482 3 61 7 160 10 220 3 61 8 162 10 225 6 118 10 215 19 425 10
202 16 353 22 505 10 270 11 307 29 685 2 55 7 174 11 265 3 91 7 179 9 195 2
17 3 35 4 41 1 12 57 5 184 -22z m-1502 -11 c1 -16 2 -41 3 -58 2 -16 6 -79
10 -140 4 -60 9 -126 11 -145 2 -19 7 -71 10 -115 3 -44 7 -100 10 -125 2 -25
6 -83 10 -130 3 -47 8 -101 10 -120 4 -32 14 -155 20 -225 5 -68 18 -222 21
-255 2 -19 6 -75 9 -125 3 -49 8 -101 10 -115 3 -14 7 -61 10 -105 3 -44 8
-100 10 -125 3 -25 7 -74 10 -110 6 -74 13 -152 20 -225 2 -27 7 -81 10 -120
3 -38 8 -86 10 -105 2 -19 6 -75 10 -125 3 -49 8 -106 10 -125 5 -34 8 -74 20
-250 3 -47 7 -98 10 -115 2 -16 7 -70 11 -120 3 -49 7 -100 9 -112 1 -13 0
-23 -2 -23 -5 0 -112 90 -189 158 -23 21 -69 60 -102 87 -50 41 -66 62 -91
120 -16 39 -39 90 -50 115 -11 25 -20 48 -21 52 0 4 -15 36 -32 70 -18 35 -31
69 -30 76 2 6 -2 12 -8 12 -5 0 -9 3 -8 8 2 6 -21 64 -43 104 -5 10 -9 24 -9
32 0 8 -7 22 -16 30 -8 9 -13 16 -9 16 3 0 0 10 -7 23 -7 12 -13 24 -13 27 -1
3 -8 21 -17 40 -8 19 -21 52 -28 73 -8 20 -17 37 -22 37 -4 0 -5 7 -2 15 4 8
1 15 -5 15 -6 0 -10 3 -9 8 1 4 -6 24 -15 46 -9 21 -17 42 -17 47 0 5 -5 9
-11 9 -5 0 -7 5 -4 10 3 6 2 10 -4 10 -6 0 -8 7 -5 15 4 8 1 15 -5 15 -6 0
-10 3 -9 8 1 4 -7 25 -17 47 -10 22 -19 46 -21 54 -1 7 -7 18 -13 24 -6 6 -11
19 -11 29 0 10 -5 18 -11 18 -5 0 -7 5 -4 11 4 5 -1 19 -11 30 -9 10 -14 19
-10 19 4 0 1 10 -6 23 -7 12 -13 24 -14 27 -1 3 -5 15 -9 28 -4 12 -12 22 -17
22 -5 0 -7 4 -3 9 3 5 1 12 -5 16 -6 4 -8 11 -5 16 4 5 1 9 -4 9 -6 0 -10 3
-9 8 1 4 -8 28 -19 55 -12 26 -22 50 -22 52 0 3 -8 19 -16 35 -8 16 -15 31
-14 32 2 2 -4 14 -11 28 -15 27 -17 31 -19 56 0 8 -6 12 -12 9 -6 -4 -10 -1
-9 6 3 19 -11 59 -19 59 -4 0 -8 6 -8 13 0 7 -13 40 -28 73 -16 32 -30 61 -30
64 -11 42 -19 60 -26 60 -5 0 -8 3 -7 8 1 4 -5 21 -15 38 -9 17 -13 34 -10 38
4 3 0 6 -7 6 -7 0 -10 3 -7 7 4 3 1 13 -5 21 -7 8 -13 19 -14 26 -1 7 -11 32
-22 56 -11 25 -19 48 -19 51 1 4 -7 17 -18 30 -11 12 -14 19 -8 15 9 -5 11 -2
7 8 -3 9 -10 16 -15 16 -5 0 -8 3 -7 8 1 8 -15 51 -38 96 -8 16 -14 35 -14 43
0 7 -4 13 -10 13 -5 0 -9 3 -8 8 0 4 -7 25 -17 47 -10 22 -20 45 -21 50 -1 6
-5 18 -9 27 -6 14 14 28 114 77 230 114 490 210 751 277 74 19 149 37 165 40
17 3 46 9 65 13 19 5 47 9 63 10 23 1 27 -3 28 -26z m2637 -405 c240 -130 577
-362 719 -494 15 -14 56 -51 91 -82 34 -31 62 -61 62 -66 0 -10 -64 -72 -160
-156 -35 -30 -69 -60 -76 -67 -7 -7 -16 -13 -21 -13 -4 0 -19 -14 -32 -30 -13
-17 -29 -30 -37 -30 -8 0 -14 -7 -14 -15 0 -8 -4 -15 -9 -15 -6 0 -25 -14 -43
-31 -18 -17 -53 -47 -77 -67 -25 -21 -65 -56 -90 -80 -25 -24 -58 -51 -73 -60
-16 -9 -28 -22 -28 -29 0 -7 -4 -13 -9 -13 -4 0 -25 -15 -45 -34 -20 -19 -36
-33 -36 -31 0 2 -10 -6 -23 -18 -21 -20 -61 -55 -200 -177 -22 -19 -53 -47
-68 -62 -16 -15 -29 -25 -29 -23 0 3 -8 -3 -18 -12 -11 -10 -17 -22 -14 -27 3
-5 1 -6 -5 -3 -5 3 -38 -21 -74 -53 -35 -33 -67 -60 -71 -60 -5 0 -8 -7 -8
-16 0 -8 -3 -13 -8 -10 -11 6 -83 -60 -74 -69 4 -5 2 -6 -4 -2 -5 3 -45 -27
-88 -67 -43 -41 -80 -74 -83 -74 -3 0 -26 -20 -52 -44 -25 -23 -85 -77 -131
-118 -47 -41 -101 -89 -120 -107 -19 -18 -39 -33 -43 -33 -5 0 -5 -6 -1 -12 4
-7 3 -10 -1 -5 -5 4 -21 -5 -37 -20 -34 -33 -45 -25 -27 19 8 18 13 36 11 41
-1 4 2 7 8 7 5 0 10 8 10 18 0 10 3 22 8 26 4 4 7 11 8 14 1 9 11 34 46 112
16 36 28 65 28 65 -2 0 18 50 43 108 14 31 24 57 22 57 -3 0 5 18 16 40 11 21
22 45 23 52 3 12 10 29 50 123 17 38 40 99 42 105 1 4 7 20 43 105 5 11 16 36
25 57 9 20 16 39 16 42 0 3 11 29 23 58 13 29 38 89 56 133 18 44 37 89 42
100 54 129 250 611 252 620 1 6 4 12 7 15 5 5 66 151 148 357 20 51 41 93 45
93 5 0 43 -19 85 -42z m-3842 -83 c20 -43 43 -95 51 -114 9 -20 17 -38 18 -41
7 -19 20 -51 35 -85 10 -22 37 -87 61 -145 23 -58 48 -108 53 -112 6 -4 7 -8
2 -8 -5 0 -2 -7 5 -17 8 -9 13 -18 11 -20 -1 -2 6 -22 16 -46 10 -23 36 -85
57 -137 21 -52 43 -101 49 -109 6 -7 11 -19 12 -25 2 -21 28 -76 37 -76 4 0 6
-4 2 -9 -3 -6 4 -26 15 -45 11 -20 18 -36 15 -36 -2 0 7 -22 20 -49 14 -27 25
-51 25 -55 0 -3 12 -31 26 -63 14 -32 32 -71 39 -88 7 -16 21 -50 32 -75 11
-25 28 -66 39 -92 10 -27 22 -48 26 -48 4 0 4 -7 1 -17 -5 -12 -3 -14 7 -8 10
6 12 4 8 -7 -4 -8 2 -29 12 -46 10 -16 16 -33 13 -36 -4 -3 -2 -6 4 -6 5 0 10
-6 10 -12 0 -7 17 -48 37 -91 20 -43 36 -81 36 -83 0 -3 12 -31 26 -62 26 -57
46 -103 49 -112 1 -3 9 -22 18 -44 9 -21 17 -42 17 -47 0 -5 4 -9 8 -9 5 0 9
-6 9 -12 0 -7 13 -42 30 -78 43 -93 56 -130 51 -136 -5 -4 -64 44 -232 189
-32 28 -64 56 -70 62 -6 5 -27 23 -46 39 -19 16 -66 56 -104 90 -38 34 -93 81
-121 106 -104 92 -159 135 -167 132 -5 -1 -7 1 -5 5 3 5 -1 14 -9 21 -8 7 -14
11 -14 9 0 -3 -26 19 -57 49 -31 29 -62 50 -68 47 -5 -4 -7 -3 -3 2 8 8 -57
65 -74 65 -5 0 -6 5 -3 10 3 6 -2 13 -11 17 -10 3 -25 14 -34 22 -9 9 -47 43
-85 76 -37 33 -77 68 -87 78 -10 9 -21 17 -26 17 -4 0 -13 9 -20 21 -7 12 -15
19 -18 16 -2 -2 -35 24 -71 59 -37 35 -68 62 -70 60 -2 -2 -21 14 -43 35 -22
22 -45 39 -51 39 -5 0 -7 5 -4 10 3 6 2 10 -4 10 -5 0 -21 10 -34 23 -55 50
-87 77 -92 77 -3 0 -18 14 -35 31 -16 18 -30 28 -30 23 0 -5 -7 2 -16 14 -8
12 -20 20 -25 17 -5 -4 -9 1 -9 9 0 9 -4 16 -9 16 -4 0 -19 10 -32 23 -13 12
-49 43 -79 67 -30 25 -57 48 -58 53 -2 4 -8 5 -13 1 -5 -3 -8 -1 -7 5 2 5 -5
16 -15 23 -20 15 -22 12 163 182 72 66 289 235 399 311 140 97 353 226 364
222 5 -1 24 -38 43 -82z m4944 -790 c173 -189 376 -477 514 -728 26 -48 27
-67 2 -67 -7 0 -27 -7 -45 -16 -17 -9 -37 -17 -44 -18 -7 -2 -34 -13 -62 -25
-27 -13 -54 -24 -60 -26 -9 -2 -66 -25 -110 -45 -11 -5 -42 -19 -70 -31 -27
-12 -52 -23 -55 -23 -21 -6 -107 -41 -114 -48 -6 -4 -18 -8 -28 -8 -10 0 -18
-5 -18 -11 0 -5 -4 -7 -10 -4 -5 3 -10 1 -10 -5 0 -6 -5 -8 -10 -5 -6 3 -17
-1 -26 -9 -9 -9 -19 -14 -24 -11 -5 3 -11 1 -15 -5 -3 -5 -15 -10 -26 -10 -10
0 -19 -4 -19 -8 0 -5 -6 -9 -12 -9 -7 0 -39 -12 -70 -27 -31 -14 -59 -26 -61
-26 -3 0 -22 -8 -43 -17 -22 -9 -42 -16 -46 -15 -5 1 -8 -2 -8 -6 0 -4 -20
-14 -45 -21 -25 -7 -45 -17 -45 -22 0 -5 -6 -9 -14 -9 -8 0 -52 -16 -98 -36
-117 -51 -132 -57 -138 -59 -3 -1 -18 -8 -35 -15 -16 -7 -33 -13 -37 -12 -5 1
-8 -2 -8 -6 0 -5 -6 -9 -12 -9 -7 0 -33 -10 -57 -21 -25 -12 -51 -22 -58 -22
-7 0 -13 -4 -13 -8 0 -5 -6 -9 -12 -9 -7 0 -35 -10 -63 -23 -27 -13 -54 -22
-58 -21 -4 1 -15 -5 -23 -14 -9 -8 -23 -15 -32 -15 -10 0 -28 -7 -40 -16 -12
-8 -22 -13 -22 -9 0 3 -11 -2 -25 -11 -14 -9 -25 -14 -25 -11 0 3 -26 -8 -57
-24 -32 -16 -61 -29 -65 -29 -3 0 -28 -10 -55 -22 -26 -12 -50 -22 -53 -22 -5
-1 -192 -80 -275 -116 -22 -9 -60 -26 -85 -36 -25 -10 -48 -22 -51 -27 -3 -5
-10 -8 -15 -8 -5 1 -27 -6 -49 -16 -22 -9 -43 -16 -47 -15 -5 1 -8 -2 -8 -6 0
-5 -6 -9 -12 -9 -7 0 -40 -13 -73 -28 -33 -15 -69 -30 -80 -32 -10 -2 -22 -8
-26 -14 -3 -6 -8 -10 -10 -9 -4 1 -27 -6 -77 -26 -32 -13 -33 -13 -27 9 4 12
38 99 77 192 75 183 70 176 218 305 29 25 62 54 74 65 12 11 56 49 96 85 41
36 91 81 112 101 21 20 38 35 38 32 0 -2 11 6 24 19 40 39 122 113 276 248 40
36 78 70 84 75 6 6 29 26 51 44 22 19 39 39 37 44 -1 5 2 6 7 3 5 -3 21 8 35
25 14 17 26 27 26 23 0 -4 12 5 26 20 15 14 31 26 35 26 5 0 9 8 9 17 0 9 3
14 6 10 6 -5 31 13 90 68 17 17 63 57 100 90 38 33 87 76 109 96 55 49 98 87
121 105 10 9 13 12 5 8 -9 -5 -12 -3 -7 5 4 6 11 9 16 6 5 -3 18 7 29 21 12
15 21 24 21 21 0 -4 13 6 29 21 52 50 122 112 125 112 2 0 27 23 57 50 30 28
57 50 62 50 4 0 5 5 2 10 -4 6 -2 9 3 8 12 -4 72 49 72 63 0 5 4 8 9 4 5 -3
13 -1 16 5 4 6 34 33 68 61 l61 51 65 -69 c36 -37 86 -91 111 -118z m-5914 87
c22 -20 71 -64 108 -97 38 -33 78 -69 90 -80 12 -11 53 -47 91 -80 38 -33 79
-69 91 -80 12 -11 33 -29 46 -39 57 -48 237 -204 273 -238 22 -21 44 -38 48
-38 4 0 20 -13 35 -28 15 -15 61 -57 102 -92 41 -36 80 -69 86 -75 6 -5 37
-32 69 -60 32 -27 63 -54 69 -60 6 -5 29 -25 51 -44 22 -19 67 -57 100 -86 56
-49 311 -267 363 -311 13 -10 36 -30 51 -44 15 -14 49 -44 76 -67 28 -23 60
-50 71 -60 12 -10 47 -40 79 -68 32 -27 70 -60 84 -72 14 -13 29 -23 32 -23 5
0 32 -51 30 -57 0 -2 13 -29 28 -60 16 -32 34 -75 42 -95 7 -21 17 -38 23 -38
5 0 7 -3 3 -6 -3 -4 3 -25 14 -47 12 -22 27 -58 35 -79 13 -38 13 -39 -8 -32
-12 3 -37 14 -57 22 -20 9 -40 17 -46 17 -5 1 -21 7 -35 15 -14 7 -25 12 -25
11 0 -3 -14 3 -90 34 -106 44 -222 88 -232 88 -7 0 -13 4 -13 9 0 4 -6 8 -12
8 -7 0 -26 7 -42 15 -15 8 -32 13 -36 10 -5 -3 -10 -2 -12 3 -1 4 -48 25 -103
46 -93 36 -214 84 -310 124 -22 10 -43 16 -47 14 -5 -1 -8 3 -8 9 0 5 -4 8 -9
4 -5 -3 -12 -1 -16 5 -3 5 -13 10 -21 10 -8 0 -34 9 -56 20 -23 11 -46 20 -50
20 -5 0 -27 9 -50 20 -22 11 -44 17 -49 15 -4 -3 -9 -2 -11 2 -1 5 -93 43
-203 86 -110 43 -209 83 -220 88 -25 11 -77 32 -87 34 -5 2 -10 4 -13 5 -3 1
-9 4 -15 5 -5 1 -12 3 -15 4 -3 0 -8 1 -11 0 -4 0 -10 4 -14 11 -4 6 -17 12
-28 13 -12 1 -22 4 -22 8 0 7 -50 23 -62 21 -5 -1 -8 3 -8 9 0 5 -4 8 -9 4 -5
-3 -12 -1 -16 5 -3 5 -17 10 -30 10 -13 0 -25 5 -27 12 -2 6 -13 12 -24 12
-11 1 -24 5 -29 8 -13 8 -447 179 -460 182 -5 1 -19 7 -30 13 -16 8 -82 33
-105 38 -3 1 -16 6 -30 12 -14 6 -56 23 -93 38 -38 15 -71 33 -73 40 -5 12 19
59 99 200 22 39 45 80 51 92 6 13 14 23 19 23 4 0 7 4 7 9 0 22 244 369 311
442 13 14 35 39 49 56 65 79 174 193 184 193 6 0 29 -17 52 -38z m6535 -1022
c129 -254 267 -665 322 -958 l14 -74 -26 -10 c-14 -5 -78 -23 -141 -40 -143
-37 -152 -39 -167 -40 -7 -1 -13 -5 -13 -9 0 -4 -8 -6 -17 -4 -10 1 -26 -2
-37 -7 -10 -6 -28 -11 -40 -13 -11 -1 -57 -13 -101 -25 -44 -13 -86 -23 -92
-23 -7 0 -13 -4 -13 -8 0 -5 -6 -6 -14 -3 -8 3 -17 1 -20 -5 -4 -6 -13 -8 -21
-4 -8 3 -15 -1 -15 -8 0 -7 -3 -10 -6 -7 -3 3 -71 -12 -152 -33 -81 -22 -154
-41 -162 -43 -8 -2 -60 -16 -115 -30 -55 -15 -107 -29 -115 -31 -8 -2 -17 -4
-20 -5 -3 -1 -9 -3 -15 -5 -5 -1 -12 -3 -15 -4 -3 -2 -12 -4 -20 -6 -8 -2 -26
-7 -40 -10 -14 -3 -35 -8 -47 -11 -12 -2 -34 -9 -48 -14 -14 -5 -25 -7 -25 -4
0 4 -7 1 -15 -6 -8 -7 -15 -10 -15 -7 0 3 -24 -1 -52 -10 -29 -8 -60 -17 -68
-18 -8 -2 -16 -4 -17 -5 -2 -2 -12 -4 -23 -5 -11 -1 -22 -4 -25 -5 -3 -1 -9
-4 -15 -5 -5 -1 -12 -4 -15 -5 -3 -1 -9 -4 -15 -5 -5 -1 -11 -4 -12 -5 -2 -1
-12 -4 -23 -5 -11 -1 -47 -10 -80 -20 -33 -9 -69 -18 -80 -20 -11 -2 -20 -4
-20 -5 0 -1 -7 -3 -15 -5 -8 -1 -35 -8 -60 -16 -65 -18 -63 -17 -91 -23 -15
-3 -64 -17 -110 -30 -46 -13 -87 -22 -91 -20 -5 3 -8 1 -8 -4 0 -5 -6 -9 -12
-9 -21 -1 -59 -10 -119 -27 -31 -9 -65 -19 -75 -21 -11 -2 -44 -11 -74 -20
-64 -18 -86 -24 -119 -31 -13 -3 -39 -11 -57 -19 -18 -7 -35 -11 -38 -8 -2 3
-11 1 -18 -3 -7 -5 -20 -10 -28 -11 -8 -1 -54 -13 -102 -27 -48 -13 -89 -21
-92 -18 -3 3 -6 1 -6 -4 0 -5 -29 -10 -64 -11 -63 -3 -67 -1 -175 63 -97 57
-111 69 -111 92 0 41 -26 128 -55 189 l-27 54 52 127 c37 91 60 135 83 155 35
31 119 72 292 143 61 25 124 51 140 59 17 7 55 23 85 35 30 12 73 30 95 40 22
10 85 36 140 60 55 23 114 48 130 55 33 15 308 132 660 280 127 53 347 146
490 207 143 60 280 118 304 129 24 11 67 29 95 40 28 11 71 29 95 40 24 11 65
29 91 39 26 10 67 28 91 38 24 11 67 30 95 42 28 12 80 35 115 50 35 15 68 27
73 26 5 -1 31 -44 57 -96z m-7020 -134 c4 2 9 0 11 -5 1 -4 73 -36 158 -70 85
-34 164 -66 175 -70 11 -5 67 -28 125 -50 58 -23 114 -46 125 -51 55 -24 341
-135 350 -135 6 0 13 -4 16 -8 3 -5 12 -9 20 -11 8 -1 32 -10 54 -20 22 -9
143 -58 270 -108 126 -50 261 -104 299 -119 38 -15 73 -26 78 -23 4 3 8 0 8
-5 0 -6 5 -11 11 -11 5 0 29 -9 52 -19 23 -10 123 -50 222 -89 99 -39 257
-100 350 -137 94 -37 199 -78 235 -92 162 -63 179 -79 244 -233 l49 -114 -18
-46 c-9 -25 -23 -69 -30 -98 -7 -29 -13 -55 -14 -57 0 -3 -1 -13 -1 -22 0 -12
-35 -39 -103 -80 -95 -58 -106 -62 -152 -59 -28 2 -79 12 -115 21 -36 10 -75
18 -87 19 -12 1 -25 5 -29 9 -4 4 -19 7 -34 7 -15 0 -30 3 -34 8 -4 4 -17 7
-29 8 -12 0 -40 6 -62 12 -41 11 -84 21 -120 27 -11 2 -20 4 -20 5 0 1 -8 3
-19 5 -10 2 -40 9 -66 15 -26 6 -56 13 -66 15 -11 2 -20 4 -21 5 -2 2 -11 3
-20 5 -10 1 -25 5 -33 8 -8 3 -28 8 -45 11 -28 5 -42 7 -105 22 -14 3 -34 7
-45 9 -11 2 -20 4 -20 5 0 2 -35 10 -62 15 -12 2 -37 8 -55 14 -29 9 -71 18
-118 25 -9 1 -21 5 -28 10 -6 4 -16 5 -21 1 -5 -3 -12 -1 -16 4 -3 5 -13 9
-23 9 -9 -1 -37 5 -62 12 -25 7 -54 14 -65 15 -11 2 -30 6 -42 9 -43 11 -63
16 -85 21 -13 2 -36 8 -53 12 -16 3 -37 7 -45 9 -8 1 -25 5 -37 8 -30 8 -62
15 -93 21 -27 5 -57 12 -92 21 -13 3 -34 7 -48 10 -14 3 -41 9 -60 14 -19 5
-46 11 -60 14 -14 3 -36 8 -50 11 -14 3 -36 8 -50 11 -14 3 -43 10 -65 16 -41
10 -59 14 -109 24 -16 2 -32 7 -36 9 -3 2 -20 7 -36 10 -16 3 -33 7 -39 9 -10
3 -122 27 -140 30 -5 1 -19 5 -30 9 -27 8 -76 19 -97 20 -10 1 -18 4 -18 7 0
3 -8 6 -17 7 -10 0 -29 4 -43 7 -14 3 -34 8 -45 10 -11 2 -42 10 -70 16 -27 7
-59 14 -70 15 -11 2 -38 8 -60 13 -38 11 -75 19 -120 27 -46 9 -68 15 -73 20
-3 3 4 56 17 118 12 62 24 123 27 137 38 195 189 641 275 812 l29 57 157 -64
c86 -35 160 -62 164 -59z m4031 -701 c-2 -14 -8 -25 -11 -25 -4 0 -8 -7 -9
-15 -1 -8 -3 -22 -4 -30 -1 -8 -5 -15 -9 -15 -4 0 -10 -11 -13 -24 -11 -43
-64 -150 -88 -178 -13 -14 -33 -29 -46 -33 -23 -7 -23 -6 -21 67 3 82 17 117
68 162 19 17 55 50 80 73 25 23 49 43 52 43 3 0 4 -11 1 -25z m-1292 -95 c128
-112 141 -124 170 -160 22 -28 31 -52 35 -94 4 -35 2 -56 -4 -56 -6 0 -40 12
-76 26 -54 22 -72 35 -98 73 -17 25 -32 48 -33 51 0 3 -8 22 -18 43 -55 125
-64 147 -58 147 3 0 1 5 -6 12 -7 7 -12 18 -12 26 0 17 13 8 100 -68z m1027
-192 l-2 -71 -80 -34 c-126 -54 -176 -31 -87 39 26 21 72 60 102 88 30 27 58
50 62 50 4 0 6 -32 5 -72z m3604 15 c0 -10 2 -27 5 -38 5 -22 14 -93 19 -140
2 -26 8 -82 21 -225 5 -52 4 -497 -1 -555 -14 -163 -19 -205 -31 -262 -4 -21
-8 -22 -77 -17 -39 3 -97 7 -127 9 -30 2 -98 6 -150 10 -52 4 -122 8 -155 10
-33 2 -96 6 -140 10 -44 3 -109 8 -145 10 -36 2 -94 7 -130 10 -36 3 -103 8
-150 11 -47 3 -105 7 -130 9 -40 3 -156 11 -315 20 -27 2 -81 6 -120 9 -151
12 -326 24 -440 31 -44 3 -110 7 -147 10 -38 3 -101 7 -140 10 -40 3 -100 7
-133 10 -33 2 -100 7 -148 10 l-88 6 -154 90 c-86 49 -160 89 -165 89 -6 0
-10 3 -10 8 0 4 -14 13 -31 21 -17 7 -27 17 -22 21 4 5 69 25 143 45 157 42
163 43 191 50 24 5 85 23 109 32 8 3 22 7 30 8 8 1 85 21 170 44 85 24 165 45
177 47 12 2 35 9 50 15 16 6 41 12 57 15 16 2 43 8 61 14 18 6 41 12 51 14 24
5 134 35 154 43 8 3 26 7 39 9 13 2 31 6 40 10 9 4 23 8 31 9 8 1 50 12 92 24
43 12 86 24 97 26 19 3 297 79 406 110 83 23 579 157 596 160 8 2 40 11 70 20
30 9 64 18 76 21 13 2 107 29 210 58 264 76 253 74 254 49z m-4321 -88 c11
-13 10 -14 -4 -9 -9 3 -16 10 -16 15 0 13 6 11 20 -6z m-3640 -20 c8 -2 26 -6
40 -9 14 -2 54 -11 90 -20 36 -8 81 -18 100 -21 19 -3 51 -10 70 -15 35 -10
411 -99 440 -105 8 -2 33 -8 55 -13 22 -6 51 -13 65 -16 14 -2 54 -11 90 -20
107 -25 233 -55 260 -60 14 -3 39 -8 55 -11 17 -3 46 -10 65 -15 19 -5 47 -11
63 -14 15 -3 35 -7 45 -10 17 -5 49 -12 106 -22 16 -3 40 -10 54 -15 14 -5 27
-7 29 -5 3 3 16 1 29 -4 14 -6 35 -12 47 -14 12 -3 92 -21 177 -41 85 -20 164
-38 175 -40 11 -2 21 -4 23 -5 2 -3 5 -4 52 -13 19 -4 44 -9 55 -12 77 -18
203 -46 220 -49 11 -2 40 -9 65 -16 25 -7 54 -14 65 -17 38 -8 60 -13 80 -17
11 -2 78 -18 149 -35 71 -17 143 -34 160 -37 17 -3 60 -12 95 -21 l63 -16 -23
-19 c-13 -10 -43 -28 -66 -40 -24 -12 -43 -25 -43 -30 0 -4 -7 -8 -15 -8 -8 0
-15 -4 -15 -10 0 -5 -4 -10 -10 -10 -5 0 -68 -36 -138 -80 -103 -64 -138 -81
-178 -85 -27 -3 -68 -8 -91 -10 -24 -3 -69 -8 -100 -10 -32 -3 -80 -7 -108 -9
-27 -3 -77 -8 -110 -11 -33 -3 -80 -8 -105 -10 -25 -3 -70 -8 -100 -10 -30 -3
-76 -8 -102 -10 -27 -3 -72 -7 -100 -10 -29 -3 -73 -7 -98 -10 -25 -3 -81 -7
-124 -11 -44 -3 -89 -8 -100 -10 -12 -2 -54 -6 -95 -9 -40 -3 -85 -7 -100 -10
-14 -2 -60 -7 -101 -11 -41 -3 -91 -8 -110 -9 -19 -2 -64 -6 -100 -9 -36 -3
-85 -8 -110 -11 -44 -5 -131 -13 -220 -20 -25 -2 -74 -7 -110 -10 -36 -4 -83
-8 -105 -10 -56 -5 -150 -14 -215 -20 -30 -4 -73 -8 -95 -9 -22 -2 -70 -7
-107 -11 -62 -6 -68 -5 -69 11 0 11 -2 28 -4 39 -2 11 -7 43 -10 70 -3 28 -8
57 -10 65 -2 8 -7 56 -10 105 -4 50 -9 106 -11 125 -11 102 -5 508 11 665 16
171 19 177 63 170 20 -3 44 -7 52 -10z m4460 -10 c0 -15 -34 -85 -41 -85 -15
0 -10 58 7 74 15 15 34 21 34 11z m-964 -71 c47 -21 54 -27 54 -51 -1 -17 -14
-43 -35 -67 l-34 -38 -27 58 c-15 33 -26 63 -25 68 1 4 -2 13 -7 20 -5 6 -12
19 -15 29 -8 21 3 19 89 -19z m853 -24 l-2 -49 -38 27 c-46 32 -48 44 -11 59
49 19 52 17 51 -37z m-235 -88 c86 -40 158 -113 199 -200 29 -61 32 -75 32
-167 0 -91 -3 -106 -31 -165 -45 -94 -99 -150 -189 -195 -70 -36 -84 -39 -168
-42 -82 -2 -99 1 -159 26 -82 35 -136 76 -181 139 -116 160 -98 382 41 521 88
87 179 123 304 117 71 -3 98 -9 152 -34z m-730 -443 c7 -36 -17 -79 -42 -74
-9 2 -18 4 -19 5 -2 2 -12 4 -23 5 -11 1 -23 4 -27 5 -5 1 -12 2 -18 1 -5 -1
-3 5 5 13 16 17 101 74 111 75 4 1 9 -13 13 -30z m1194 4 c26 -15 49 -30 52
-33 3 -4 14 -10 24 -13 27 -10 14 -19 -59 -38 -64 -16 -64 -16 -79 6 -16 24
-11 105 6 105 5 0 30 -12 56 -27z m-1294 -122 c28 -11 28 -12 11 -31 -10 -11
-15 -20 -11 -20 4 0 -5 -11 -21 -24 -16 -13 -35 -36 -42 -50 -20 -36 -92 -63
-191 -71 -157 -12 -205 -17 -211 -21 -4 -2 -10 -1 -13 4 -5 9 214 150 308 198
64 33 112 37 170 15z m1546 -27 c19 -11 42 -23 50 -27 8 -4 24 -13 35 -20 11
-7 51 -30 88 -52 37 -21 67 -42 67 -46 0 -4 -17 -5 -37 -4 -21 2 -78 7 -128
10 -203 14 -225 19 -247 55 -7 11 -19 20 -26 20 -7 0 -11 4 -8 8 3 5 -6 19
-20 31 -14 12 -24 25 -21 27 3 3 38 13 78 23 79 19 101 16 169 -25z m-1404 -8
c12 -20 64 -116 64 -118 0 -2 -17 -3 -38 -4 -20 0 -70 -4 -109 -8 -40 -4 -73
-3 -73 1 0 5 25 39 56 76 46 56 60 67 78 61 11 -4 21 -7 22 -8z m1114 -33 c12
-16 32 -38 43 -51 l21 -23 -88 3 c-48 2 -90 6 -92 10 -7 11 34 72 53 80 30 11
39 9 63 -19z m52 -128 c55 -4 112 -48 202 -159 17 -21 46 -54 64 -72 17 -19
32 -39 32 -45 0 -5 5 -7 10 -4 6 3 10 1 10 -5 0 -6 15 -27 33 -46 55 -61 71
-80 112 -129 22 -26 51 -60 65 -75 14 -15 48 -54 77 -87 29 -33 65 -74 81 -91
17 -18 32 -39 36 -47 3 -9 10 -13 16 -10 5 3 10 0 10 -7 0 -7 20 -34 43 -59
23 -25 65 -72 92 -104 28 -32 55 -63 60 -69 14 -15 116 -134 146 -170 13 -16
43 -48 65 -72 23 -24 39 -44 36 -44 -3 0 1 -6 10 -12 8 -7 41 -44 73 -83 32
-38 70 -83 85 -100 61 -68 128 -144 177 -201 28 -32 63 -72 78 -89 14 -16 54
-63 88 -103 34 -39 65 -72 69 -72 4 0 8 -7 8 -15 0 -8 4 -15 8 -15 4 0 35 -33
69 -72 34 -40 72 -85 85 -99 13 -14 48 -55 78 -89 105 -121 135 -154 155 -175
64 -65 64 -58 -6 -127 -35 -35 -62 -67 -61 -71 1 -5 -2 -6 -7 -3 -5 4 -11 3
-13 -2 -4 -11 -199 -174 -275 -231 -35 -25 -63 -49 -63 -53 0 -5 -6 -8 -13 -8
-8 0 -22 -9 -32 -20 -10 -11 -24 -20 -31 -20 -7 0 -14 -4 -16 -8 -1 -5 -37
-30 -78 -56 -41 -27 -91 -59 -110 -71 -32 -21 -94 -56 -159 -91 -23 -12 -26
-10 -87 88 -35 55 -64 103 -64 108 0 5 -3 10 -7 12 -8 3 -98 142 -135 207 -11
19 -36 60 -56 90 -20 31 -42 65 -49 76 -7 11 -31 51 -55 88 -24 37 -47 76 -53
85 -21 37 -228 360 -242 378 -13 16 -31 46 -49 79 -9 17 -26 40 -38 53 -11 13
-19 24 -17 25 3 1 -20 40 -50 87 -31 47 -80 123 -109 170 -76 122 -138 219
-171 267 -16 23 -29 46 -29 51 0 6 -4 12 -8 14 -4 2 -20 24 -35 51 -15 26 -33
47 -39 47 -6 0 -9 3 -5 6 6 7 -37 75 -295 469 -65 99 -121 185 -126 190 -12
15 -24 43 -36 88 -5 15 -12 27 -18 27 -5 0 -7 3 -5 8 3 4 8 25 11 47 6 35 16
94 22 118 1 4 2 8 4 10 1 1 3 11 5 22 2 11 7 35 10 54 5 28 35 76 35 56 0 -8
85 52 129 93 l36 32 85 -6 c47 -3 106 -7 132 -9z m-1032 -30 c9 -8 23 -15 30
-15 7 0 11 -3 7 -6 -3 -3 15 -20 41 -38 26 -17 47 -35 48 -41 0 -5 4 -22 8
-36 4 -14 9 -34 11 -45 2 -10 4 -19 5 -19 1 0 3 -7 5 -15 1 -8 13 -53 25 -100
29 -113 30 -119 20 -125 -4 -3 -11 -16 -14 -31 -4 -14 -18 -43 -32 -65 -13
-21 -21 -39 -17 -39 5 0 3 -4 -3 -8 -13 -8 -154 -240 -154 -252 0 -5 -3 -10
-7 -12 -5 -1 -15 -15 -23 -31 -8 -15 -85 -143 -170 -284 -85 -141 -156 -263
-158 -270 -2 -7 -7 -13 -10 -13 -4 0 -19 -21 -32 -47 -14 -27 -27 -50 -30 -53
-3 -3 -72 -117 -154 -255 -82 -137 -165 -277 -185 -310 -20 -33 -39 -61 -43
-63 -5 -2 -8 -7 -8 -11 0 -5 -118 -203 -261 -442 -144 -239 -269 -447 -279
-464 -9 -16 -30 -51 -46 -77 l-30 -48 -84 45 c-47 25 -93 48 -102 52 -10 3
-18 9 -18 14 0 5 -5 9 -11 9 -6 0 -34 15 -62 33 -69 44 -108 70 -128 82 -30
18 -134 89 -139 95 -3 3 -41 32 -85 64 -44 33 -82 62 -85 65 -3 4 -30 26 -60
50 -30 25 -59 50 -65 55 -5 6 -36 33 -67 60 -32 27 -58 54 -58 62 0 10 128
174 160 204 3 3 27 32 55 65 27 33 57 69 67 80 10 11 90 108 179 215 88 107
171 206 183 220 12 14 48 59 81 100 33 41 63 77 68 78 4 2 5 8 1 13 -3 5 2 9
10 9 9 0 16 4 16 8 0 5 27 41 60 80 34 40 59 72 56 72 -2 0 10 15 27 33 18 18
48 53 67 77 19 24 50 59 67 79 18 20 33 40 33 44 0 4 12 19 26 32 15 14 24 25
21 25 -4 0 8 15 26 34 18 18 43 48 57 67 14 18 42 51 62 74 21 22 38 46 38 53
0 6 4 12 9 12 13 0 116 133 113 145 -2 5 -1 7 3 3 4 -3 27 19 53 50 25 31 57
71 71 88 80 94 106 129 103 137 -1 5 2 6 8 2 5 -3 10 -3 10 2 0 4 10 20 23 35
37 44 51 61 87 108 19 24 41 51 48 58 7 8 25 30 40 50 15 21 32 42 37 48 6 6
23 27 40 48 45 56 87 73 205 82 98 7 141 12 147 17 8 9 45 -2 63 -18z m1460
-10 c30 -2 87 -6 127 -9 68 -5 80 -10 205 -82 73 -43 142 -82 153 -88 39 -22
220 -129 245 -145 14 -8 27 -16 30 -16 3 0 16 -8 30 -17 55 -35 152 -88 161
-88 5 0 9 -4 9 -9 0 -5 8 -11 18 -14 9 -3 43 -21 74 -39 32 -18 144 -82 249
-143 105 -60 212 -122 238 -138 25 -15 53 -30 61 -34 8 -3 26 -14 40 -23 14
-9 50 -30 80 -47 30 -17 71 -40 90 -51 19 -12 42 -25 50 -29 8 -4 51 -28 95
-54 44 -26 96 -56 115 -67 19 -10 112 -63 205 -117 94 -54 185 -106 203 -117
18 -10 45 -26 60 -35 15 -9 28 -18 30 -19 2 -1 -11 -25 -28 -53 -16 -29 -30
-54 -30 -57 0 -14 -242 -409 -260 -424 -3 -3 -30 -39 -60 -80 -30 -41 -57 -77
-60 -80 -3 -3 -21 -25 -40 -50 -19 -25 -40 -49 -46 -55 -5 -5 -37 -41 -69 -78
-32 -37 -75 -86 -96 -107 l-38 -39 -93 111 c-51 61 -102 120 -113 132 -19 20
-488 555 -531 606 -12 14 -41 48 -65 76 -24 27 -71 81 -104 120 -33 38 -76 86
-97 107 -20 21 -37 41 -38 45 -1 4 -16 23 -33 42 -18 20 -75 85 -127 145 -52
60 -102 117 -110 125 -8 9 -42 47 -75 85 -33 39 -70 80 -82 93 -13 13 -23 25
-23 28 0 3 -16 21 -35 40 -20 19 -33 34 -30 34 3 0 -3 9 -12 19 -9 11 -20 18
-25 15 -4 -3 -8 0 -8 7 0 7 -13 27 -29 43 -75 80 -89 96 -85 96 3 0 -12 18
-33 41 -21 22 -50 54 -65 69 -14 16 -23 31 -20 34 3 3 -1 6 -9 6 -8 0 -21 11
-29 24 -8 14 -34 45 -57 70 -24 24 -43 50 -43 55 0 6 -7 11 -17 11 -9 0 -14 3
-10 6 3 4 -9 22 -29 40 -19 19 -31 34 -27 34 5 0 1 6 -7 13 -8 7 -22 20 -30
31 -15 20 0 20 250 1z m-1923 -35 c-1 -10 -5 -16 -9 -14 -4 3 -8 2 -8 -3 0 -4
-16 -26 -35 -47 -19 -22 -35 -43 -35 -47 0 -4 -15 -23 -32 -42 -18 -19 -40
-43 -48 -53 -8 -10 -48 -59 -88 -109 -40 -49 -78 -91 -83 -93 -5 -2 -9 -8 -9
-14 0 -5 -6 -15 -12 -22 -38 -39 -68 -77 -68 -86 0 -5 -4 -10 -9 -10 -5 0 -27
-24 -49 -52 -22 -29 -49 -63 -61 -75 -12 -13 -20 -23 -17 -23 3 0 -5 -10 -17
-23 -37 -38 -112 -130 -111 -136 0 -3 -10 -14 -23 -24 -13 -10 -23 -26 -23
-34 0 -9 -3 -14 -6 -10 -7 7 -134 -149 -134 -165 0 -6 -3 -8 -6 -5 -4 3 -16
-6 -27 -21 -12 -15 -43 -53 -70 -84 -27 -32 -47 -58 -44 -58 3 0 -7 -12 -21
-27 -15 -16 -43 -48 -62 -72 -19 -24 -40 -48 -45 -55 -6 -6 -63 -76 -128 -156
-65 -80 -128 -156 -141 -170 -12 -14 -51 -61 -86 -105 -93 -113 -218 -267
-238 -290 -10 -11 -44 -54 -77 -95 -33 -41 -62 -77 -65 -80 -3 -3 -30 -35 -59
-72 -30 -38 -57 -68 -61 -68 -11 0 -200 202 -276 295 -124 153 -164 204 -164
213 0 6 -4 12 -8 14 -5 2 -29 32 -53 68 -24 36 -47 67 -51 68 -5 2 -8 8 -8 13
0 12 -52 93 -62 97 -5 2 -8 8 -8 12 0 5 -14 33 -31 62 -75 125 -81 139 -69
153 6 7 70 48 143 91 73 43 146 87 162 99 17 12 37 25 45 29 8 3 42 24 75 46
33 22 69 44 80 49 11 5 50 29 87 53 37 24 86 55 110 69 24 15 133 83 243 151
110 68 211 131 225 139 14 7 27 16 30 19 3 3 14 10 25 17 124 75 161 98 163
105 2 4 7 8 12 8 11 0 193 112 202 125 4 5 8 7 8 3 0 -6 82 43 115 69 6 4 27
17 48 27 20 11 37 23 37 28 0 4 5 8 11 8 11 0 242 139 266 160 7 5 15 10 17
10 3 0 37 20 74 44 104 66 125 75 194 82 35 3 81 7 103 10 22 2 67 6 99 9 33
3 60 6 62 7 1 2 25 4 52 4 43 2 50 -1 49 -16z m2458 -5 c39 -2 104 -7 145 -10
41 -3 109 -8 151 -10 42 -2 110 -6 150 -10 41 -4 103 -8 139 -10 36 -2 92 -6
125 -9 58 -5 183 -14 295 -21 77 -5 215 -15 275 -20 28 -2 100 -7 160 -10 61
-3 131 -8 157 -10 25 -2 93 -7 150 -10 57 -4 128 -8 158 -10 30 -2 100 -6 155
-9 166 -10 279 -18 305 -21 14 -2 30 -3 36 -4 8 -1 9 -12 4 -38 -5 -21 -11
-53 -14 -70 -14 -79 -19 -103 -52 -235 -19 -77 -55 -203 -81 -281 -26 -78 -48
-146 -49 -152 -4 -17 -110 -268 -127 -302 -9 -17 -21 -34 -25 -37 -5 -3 -32
10 -60 29 -29 19 -52 32 -52 30 0 -2 -46 25 -102 59 -57 34 -110 65 -118 69
-8 4 -28 16 -45 26 -16 10 -118 69 -225 131 -107 61 -212 123 -232 136 -21 13
-38 21 -38 18 0 -4 -8 0 -17 8 -15 13 -293 175 -473 276 -25 14 -62 36 -82 49
-21 12 -39 23 -42 23 -2 0 -65 36 -140 80 -76 44 -140 80 -143 80 -4 0 -14 6
-22 14 -9 7 -47 30 -86 51 -38 21 -87 49 -107 62 -21 12 -42 23 -48 23 -5 0
-10 5 -10 10 0 6 -5 10 -10 10 -15 0 -170 91 -170 100 0 5 21 6 48 4 26 -2 79
-6 117 -9z m-3065 -44 c0 -7 -203 -137 -335 -214 -11 -7 -39 -24 -62 -39 -23
-16 -46 -28 -52 -28 -6 0 -11 -4 -11 -8 0 -5 -15 -16 -32 -25 -18 -10 -47 -26
-64 -36 -55 -33 -328 -203 -364 -226 -19 -12 -145 -90 -280 -172 -384 -235
-595 -367 -598 -375 -2 -4 -8 -8 -13 -8 -5 0 -65 -36 -135 -80 -69 -44 -128
-80 -130 -80 -8 0 -69 -44 -72 -52 -2 -5 -8 -8 -14 -8 -12 0 -122 230 -181
380 -40 103 -124 351 -132 390 -2 8 -13 53 -25 100 -12 47 -30 122 -40 168
-17 76 -17 82 -2 83 10 0 25 2 34 4 9 2 54 6 100 10 46 4 97 9 113 11 17 1 64
5 105 8 41 4 95 8 120 11 25 2 74 7 110 10 36 3 86 8 111 10 26 3 75 8 110 11
35 3 82 7 104 9 22 2 67 6 100 9 87 8 163 16 220 21 28 3 75 7 105 10 66 6
137 12 205 19 28 3 82 8 120 11 39 4 86 8 105 10 19 2 64 6 100 9 36 3 85 8
110 11 25 3 70 7 100 10 30 2 80 7 110 10 60 7 109 11 215 21 39 3 71 6 72 7
7 7 73 5 73 -2z m1350 -45 c41 -8 57 -17 66 -34 12 -25 7 -39 -36 -107 -11
-16 -25 -40 -31 -52 -7 -13 -16 -23 -20 -23 -7 0 -17 24 -23 54 -2 6 -8 31
-15 56 -7 25 -14 52 -16 60 -2 8 -6 28 -11 44 -6 26 -5 28 12 21 10 -4 44 -12
74 -19z m266 -23 c-3 -21 -8 -49 -11 -63 -3 -14 -8 -38 -11 -55 -3 -16 -7 -31
-9 -34 -5 -5 -44 41 -45 52 0 5 -9 22 -20 37 -36 51 -2 87 94 99 5 1 6 -16 2
-36z m-125 -126 c5 -12 22 -42 37 -67 32 -52 33 -80 3 -210 -10 -47 -17 -88
-14 -92 2 -5 0 -8 -5 -8 -5 0 -9 -6 -10 -12 -1 -19 -10 -72 -13 -78 -1 -3 -3
-9 -4 -15 -7 -42 -18 -75 -26 -75 -9 0 -26 57 -21 73 1 4 -2 7 -6 7 -4 0 -8 8
-8 18 -1 9 -16 71 -34 137 -34 129 -43 185 -29 185 5 0 9 4 9 9 0 19 93 160
102 155 5 -3 14 -16 19 -27z m174 -277 c25 -39 45 -74 45 -79 0 -5 3 -11 8
-13 10 -4 62 -86 62 -98 0 -5 5 -10 10 -10 6 0 10 -7 10 -15 0 -8 5 -15 10
-15 6 0 10 -4 10 -10 0 -5 24 -45 53 -89 28 -44 70 -110 92 -146 22 -35 44
-65 48 -65 5 0 6 -4 2 -10 -3 -5 3 -18 15 -30 11 -11 18 -20 15 -20 -3 0 -1
-6 5 -12 13 -15 185 -283 215 -335 19 -33 136 -217 241 -378 28 -44 52 -84 53
-90 1 -5 10 -19 20 -30 10 -11 28 -38 42 -60 13 -22 27 -44 31 -50 10 -12 34
-50 183 -290 123 -197 327 -520 433 -684 33 -52 59 -98 56 -102 -5 -9 -230
-117 -259 -125 -5 -1 -27 -9 -47 -18 -21 -9 -40 -16 -43 -16 -3 0 -18 -6 -33
-14 -33 -17 -303 -108 -387 -131 -33 -9 -67 -19 -75 -22 -8 -3 -18 -6 -21 -5
-4 1 -22 -3 -40 -9 -19 -5 -47 -12 -64 -15 -16 -2 -38 -7 -47 -10 -22 -7 -55
-13 -103 -20 -34 -4 -41 -2 -42 13 -1 20 -91 362 -98 373 -3 4 -7 25 -11 46
-3 20 -10 48 -15 61 -5 13 -11 36 -14 51 -3 15 -23 95 -45 177 -23 83 -42 157
-44 165 -5 18 -79 304 -136 525 -23 88 -44 167 -46 175 -5 21 -111 424 -173
660 -29 107 -54 206 -57 220 -2 14 -9 37 -15 52 -12 30 -9 67 14 173 9 39 18
82 21 95 2 14 16 77 31 140 14 63 28 125 31 138 2 12 7 22 9 22 3 0 25 -32 50
-70z m-329 -85 c3 -11 7 -27 9 -35 2 -8 4 -15 5 -15 1 0 3 -11 6 -24 2 -12 16
-69 31 -125 14 -55 26 -107 26 -113 0 -7 3 -13 7 -13 13 0 -1 -126 -21 -177
-5 -13 -7 -23 -4 -23 2 0 -1 -15 -6 -32 -5 -18 -12 -46 -15 -63 -3 -16 -11
-55 -19 -85 -8 -30 -17 -71 -20 -90 -3 -19 -8 -42 -10 -50 -2 -8 -7 -30 -10
-49 -3 -19 -8 -37 -10 -41 -2 -4 -7 -22 -10 -41 -3 -19 -10 -51 -16 -72 -10
-36 -17 -76 -24 -122 -1 -11 -5 -27 -8 -35 -4 -8 -8 -26 -11 -40 -2 -14 -23
-110 -46 -215 -23 -104 -44 -201 -46 -215 -2 -14 -7 -36 -11 -50 -3 -14 -7
-29 -8 -35 -8 -33 -26 -126 -31 -150 -3 -16 -7 -32 -9 -36 -3 -4 -7 -24 -10
-45 -4 -22 -9 -48 -12 -59 -3 -11 -7 -29 -9 -40 -1 -11 -8 -42 -14 -70 -16
-69 -45 -204 -56 -260 -22 -116 -48 -225 -54 -225 -4 0 -7 -6 -7 -12 -1 -7 -4
-29 -7 -48 -5 -33 -9 -53 -21 -100 -3 -11 -8 -30 -11 -42 -3 -13 -7 -43 -9
-68 -2 -29 -8 -45 -17 -45 -13 1 -118 17 -128 20 -3 1 -25 5 -50 9 -25 5 -52
10 -60 11 -8 2 -53 13 -100 24 -47 12 -92 23 -101 26 -118 27 -447 141 -584
201 -22 10 -42 18 -45 19 -12 3 -120 58 -120 61 0 5 103 178 109 184 3 3 12
16 20 30 14 24 124 204 270 443 36 59 81 133 100 165 18 31 41 69 50 84 47 78
188 314 201 337 34 57 333 558 351 586 11 17 130 214 265 440 135 225 250 416
257 423 11 14 14 9 43 -103z m150 -576 c3 -13 8 -35 11 -49 2 -14 7 -32 10
-40 3 -8 7 -22 8 -30 2 -8 6 -25 9 -37 3 -13 8 -31 10 -40 30 -120 78 -301 83
-313 3 -8 7 -19 7 -25 1 -5 5 -23 9 -40 4 -16 9 -39 12 -50 2 -11 15 -63 30
-115 14 -52 28 -104 30 -115 2 -11 11 -47 20 -80 10 -33 19 -68 20 -77 2 -10
15 -60 29 -111 29 -106 76 -285 81 -307 2 -8 13 -49 25 -90 11 -41 23 -82 25
-90 8 -38 78 -302 96 -365 11 -38 22 -77 24 -85 14 -60 68 -256 75 -274 12
-33 1 -43 -60 -50 -30 -4 -71 -9 -90 -11 -262 -35 -700 -39 -950 -10 -63 8
-74 13 -62 28 5 6 10 19 10 27 1 24 12 82 23 120 5 19 18 82 29 140 10 58 42
211 70 340 29 129 53 244 55 255 2 11 6 29 9 40 12 52 25 112 30 135 2 14 21
99 41 190 35 161 53 244 61 285 2 11 8 39 14 63 5 23 13 59 16 80 3 20 8 40
10 43 2 3 6 21 9 40 3 19 22 104 41 189 19 85 37 166 39 180 7 35 11 55 30
135 10 39 18 75 19 80 18 81 29 90 42 34z"/>
<path d="M4432 4745 c-232 -71 -253 -389 -32 -488 174 -78 376 61 364 250 -10
169 -174 287 -332 238z"/>
</g>
</svg>
